<?xml version="1.0" encoding="UTF-8"?>
<svg id="Layer_1" data-name="Layer 1" xmlns="http://www.w3.org/2000/svg" viewBox="0 0 432 36">
  <defs>
    <style>
      .cls-1 {
        fill: #0474c1;
      }
    </style>
  </defs>
  <path class="cls-1" d="M36.4,30.57c-3.15,2.32-7.3,2.95-10.96,2.95-9.46,0-15.4-6.43-15.4-15.61S16.52,2.26,25.77,2.26c4.52,0,7.89,1.12,10.42,2.74.46.33.66.71.66,1.12,0,.29-.08.58-.29.91l-1.91,2.91c-.29.46-.66.66-1.08.66-.29,0-.62-.08-.95-.29-2.45-1.45-4.73-1.83-6.85-1.83-5.52,0-8.96,3.44-8.96,9.42s2.91,9.67,8.55,9.67c2.61,0,4.81-.54,5.85-1.79v-4.48h-6.52c-.91,0-1.45-.54-1.45-1.45v-2.45c0-.91.54-1.45,1.45-1.45h11.12c.91,0,1.45.54,1.45,1.45v11.41c0,.75-.25,1.29-.87,1.74Z"/>
  <path class="cls-1" d="M57.28,2.26c9.38,0,15.94,6.43,15.94,15.65s-6.52,15.61-15.98,15.61-15.98-6.43-15.98-15.61,6.56-15.65,16.02-15.65ZM57.23,27.29c5.69,0,9.21-3.61,9.21-9.38s-3.57-9.42-9.17-9.42-9.26,3.65-9.26,9.42,3.53,9.38,9.21,9.38Z"/>
  <path class="cls-1" d="M92.88,2.26c9.38,0,15.94,6.43,15.94,15.65s-6.52,15.61-15.98,15.61-15.98-6.43-15.98-15.61,6.56-15.65,16.02-15.65ZM92.84,27.29c5.69,0,9.21-3.61,9.21-9.38s-3.57-9.42-9.17-9.42-9.26,3.65-9.26,9.42,3.53,9.38,9.21,9.38Z"/>
  <path class="cls-1" d="M114.51,2.72c2.45-.21,5.81-.46,9.38-.46,9.84,0,16.6,5.31,16.6,15.44,0,9.3-6.18,15.81-15.81,15.81-2.78,0-6.64-.21-10.13-.46-.95-.08-1.41-.62-1.41-1.54V4.21c0-.91.46-1.41,1.37-1.49ZM124.76,27.29c5.48,0,8.84-3.73,8.84-9.67,0-5.6-3.4-9.13-8.92-9.13-1.99,0-3.57.17-5.19.37v18.18c1.7.17,3.28.25,5.27.25Z"/>
  <path class="cls-1" d="M158.42,2.72c2.32-.21,5.6-.46,8.96-.46,8.88,0,14.73,4.57,14.73,12.62,0,10.38-7.76,18.64-18.97,18.64-2.86,0-6.81-.21-10.33-.46-.87-.08-1.29-.5-1.29-1.25,0-.46.95-5.15,5.4-27.72.17-.87.66-1.29,1.49-1.37ZM164.1,27.29c6.64,0,11.21-5.44,11.21-11.83,0-4.19-2.86-6.97-7.6-6.97-1.99,0-3.57.17-5.27.37l-3.53,18.18c1.66.17,3.2.25,5.19.25Z"/>
  <path class="cls-1" d="M217.52,16.04c0,10.13-8.22,17.47-18.34,17.47-8.72,0-14.36-6.1-14.36-14.07,0-9.96,8.3-17.18,18.47-17.18,8.67,0,14.24,5.77,14.24,13.78ZM199.71,27.29c6.52,0,11.04-4.94,11.04-11.12,0-4.48-2.99-7.68-8.01-7.68-6.56,0-11.16,4.9-11.16,10.96,0,4.44,3.03,7.84,8.13,7.84Z"/>
  <path class="cls-1" d="M245.66,10.85c-.33,0-.66-.17-1.04-.46-1.62-1.29-3.82-2.03-5.89-2.03-6.89,0-11.5,4.98-11.5,11.25,0,4.86,2.95,7.8,8.22,7.8,2.28,0,4.61-.75,6.56-1.95.33-.21.62-.33.91-.33.42,0,.79.29,1.08.83l1.25,2.49c.12.29.21.58.21.83,0,.46-.21.83-.62,1.16-2.45,1.83-5.52,3.07-9.88,3.07-8.34,0-14.61-4.98-14.61-13.86,0-9.38,7.35-17.39,16.98-17.39,5.31,0,8.63,1.2,10.87,3.03.37.29.54.66.54,1.04,0,.33-.08.62-.29.95l-1.79,2.86c-.29.46-.62.71-1,.71Z"/>
  <path class="cls-1" d="M262.34,2.72c2.45-.21,5.81-.46,9.38-.46,9.84,0,16.6,5.31,16.6,15.44,0,9.3-6.18,15.81-15.81,15.81-2.78,0-6.64-.21-10.13-.46-.96-.08-1.41-.62-1.41-1.54V4.21c0-.91.46-1.41,1.37-1.49ZM272.59,27.29c5.48,0,8.84-3.73,8.84-9.67,0-5.6-3.4-9.13-8.92-9.13-1.99,0-3.57.17-5.19.37v18.18c1.7.17,3.28.25,5.27.25Z"/>
  <path class="cls-1" d="M312.06,9.07h-13.12v5.52h9.54c.91,0,1.45.54,1.45,1.45v3.07c0,.91-.54,1.45-1.45,1.45h-9.54v6.23h13.9c.91,0,1.45.54,1.45,1.45v3.36c0,.91-.54,1.45-1.45,1.45h-18.8c-.91,0-1.45-.54-1.45-1.45V4.25c0-.91.54-1.45,1.45-1.45h18.01c.91,0,1.45.54,1.45,1.45v3.36c0,.91-.54,1.45-1.45,1.45Z"/>
  <path class="cls-1" d="M337.71,4.3c0-.91.54-1.45,1.45-1.45h3.57c.91,0,1.45.54,1.45,1.45v27.1c0,.91-.5,1.29-1.41,1.45-.75.12-1.45.25-1.87.25-.58,0-1-.21-1.41-.71l-14.36-17.02v16.23c0,.91-.54,1.45-1.45,1.45h-3.61c-.91,0-1.45-.54-1.45-1.45V4.46c0-.91.46-1.45,1.37-1.54.83-.08,1.49-.25,2.03-.25.58,0,1.04.21,1.45.75l14.24,18.18V4.3Z"/>
  <path class="cls-1" d="M362.07,33.06h-3.73c-.91,0-1.45-.54-1.45-1.45V9.07h-7.72c-.91,0-1.45-.54-1.45-1.45v-3.36c0-.91.54-1.45,1.45-1.45h22.12c.91,0,1.45.54,1.45,1.45v3.36c0,.91-.54,1.45-1.45,1.45h-7.76v22.54c0,.91-.54,1.45-1.45,1.45Z"/>
  <path class="cls-1" d="M377.26,32.1c-.29.75-.79,1.04-1.49,1.04-.17,0-.29,0-1.2-.08-1.33-.12-2.08-.17-2.78-.17-.79,0-1.24-.46-1.24-1.04,0-.21.08-.46.33-1.08l11.66-26.85c.33-.79.87-1.12,1.7-1.12h1.87c.83,0,1.37.33,1.7,1.12l11.75,27.23c.12.25.17.5.17.71,0,.58-.46.95-1.29,1-.54.04-1.95.12-2.91.21-.5.04-.79.08-1.16.08-.71,0-1.12-.46-1.37-1.08l-2.12-5.23h-11.5l-2.12,5.27ZM381.58,21.35h7.06l-3.53-8.59-3.53,8.59Z"/>
  <path class="cls-1" d="M422.62,28.24v3.36c0,.91-.54,1.45-1.45,1.45h-16.97c-.91,0-1.45-.54-1.45-1.45V4.25c0-.91.54-1.45,1.45-1.45h3.44c.91,0,1.45.54,1.45,1.45v22.54h12.08c.91,0,1.45.54,1.45,1.45Z"/>
</svg>