<?xml version="1.0" encoding="UTF-8"?>
<svg id="Layer_1" data-name="Layer 1" xmlns="http://www.w3.org/2000/svg" viewBox="0 0 288 288">
  <defs>
    <style>
      .cls-1 {
        fill: #0474c1;
      }
    </style>
  </defs>
  <path class="cls-1" d="M81.1,17.3c2.53.39,5.02,1.27,7.47,1.99,10.55,3.48,20.49,8.08,30.27,13.31,6.71,3.69,13.38,7.61,19.52,12.21-6.02,4.43-11.43,9.74-16.82,14.91-1.64,1.54-3.09,3.33-4.84,4.75-.7-.29-1.37-.72-2.01-1.15-3.33-2.28-6.83-4.3-10.36-6.26-6.87-3.8-14.64-7.03-22.48-7.91-3.97-.35-7.86-.26-11.65,1.09-5.59,1.86-9.91,6.8-11.77,12.3-2.06,6.15-1.88,13.17-.85,19.5,2.16,12.75,7.36,24.5,13.25,35.92.73,1.53,1.91,3.02,2.32,4.66-.46,1.49-1.3,2.86-1.9,4.3-2.18,4.82-3.87,9.82-5.56,14.83-3.79,11.73-6.46,24.01-7.45,36.3-.72-1.06-1.37-2.09-1.88-3.27-5.07-9.58-9.82-19.34-14.45-29.14-5.49-11.81-10.53-23.77-14.52-36.18-2.25-7.24-3.96-14.67-4.99-22.18-1.27-10.8-1.19-22.03,1.98-32.51,2.81-9.61,8.03-18.92,15.41-25.75,6.17-5.84,13.93-9.99,22.3-11.57,6.31-1.13,12.69-1.05,19.02-.16h0Z"/>
  <path class="cls-1" d="M223.1,17.14c8.51,1.19,16.72,4.8,23.26,10.38,4.98,4.18,8.86,9.33,12.04,14.98,5.17,9.72,7.62,20.59,7.7,31.57.05,8.35-.92,16.77-2.82,24.89-3.56,15.6-9.61,29.8-16.28,44.28-4.83,10.62-10.29,20.96-15.51,31.39-.51,1.08-1.14,2.08-1.77,3.09-.81-8.92-2.28-17.75-4.6-26.4-2.77-9.97-6.08-19.67-10.54-29.01,5.71-9.89,10.44-20.44,13.64-31.41,2.16-7.49,3.64-15.69,2.48-23.47-.76-5.46-3.3-10.61-7.54-14.19-3.55-2.9-7.98-4.16-12.52-4.23-7.27-.17-14.8,2.29-21.28,5.44-9.24,4.38-17.35,10.23-25.11,16.83-5.71,5.02-11.31,9.94-16.67,15.31-11.23,11.77-20.98,24.96-28.94,39.15-10.08,18.21-16.73,38.38-17.61,59.27-.64,13.45.61,27.02,3.76,40.12,1.73,6.91,3.42,13.8,4.44,20.86.49,3.49,1.24,6.93.57,10.46-.66,3.08-2.63,6.1-5.78,7.04-2.64.63-5.48.27-7.88-1-3.32-1.71-6.25-4.27-8.75-7.03-7.61-8.64-13.15-19.32-16.69-30.24-3.62-11.14-5.11-22.77-4.91-34.46-.12-17.45,3.5-34.51,9.74-50.75,10.71-28.43,28.2-53.96,50.34-74.71,12.4-11.94,26.22-22.45,41.06-31.16,11.28-6.51,23.44-12.35,36.01-15.84,6.42-1.91,13.56-1.96,20.16-1.13h0Z"/>
  <path class="cls-1" d="M172.5,74.54c10.32,11.34,19.47,23.82,27.12,37.13,2.54,4.68,5.16,9.4,7.32,14.26,3.26,7.16,6.19,14.41,8.42,21.96,3.59,11.24,5.68,22.89,6.51,34.64.64,13.3.1,26.29-3.59,39.16-2.57,8.84-6.23,17.52-11.23,25.26-2.98,4.57-6.27,8.86-10.5,12.35-2.34,1.97-5.29,3.84-8.35,4.34-1.97.25-4.29.29-6.02-.84-2.37-1.49-3.71-4.18-4.2-6.87-.54-2.55-.16-4.95.19-7.49.7-5,1.63-9.98,2.61-14.93,1-5.1,2.47-10.07,3.49-15.16,1.17-5.68,1.96-11.43,2.38-17.21.9-15.01-.27-29.94-4.36-44.43-3.79-13.61-9.77-26.34-17.23-38.31-4.92-7.78-10.37-15.23-16.23-22.32,7.24-7.97,15.22-14.88,23.67-21.52h0Z"/>
</svg>