<?xml version="1.0" encoding="UTF-8"?>
<svg id="Layer_1" data-name="Layer 1" xmlns="http://www.w3.org/2000/svg" viewBox="0 0 288 288">
  <defs>
    <style>
      .cls-1 {
        fill: #0474c1;
      }
    </style>
  </defs>
  <path class="cls-1" d="M70.58,109.51c-4.31,3.17-9.97,4.02-14.96,4.02-12.92,0-21.02-8.78-21.02-21.3s8.84-21.36,21.47-21.36c6.18,0,10.76,1.53,14.22,3.74.62.45.91.96.91,1.53,0,.4-.11.79-.4,1.25l-2.61,3.97c-.4.62-.91.91-1.47.91-.4,0-.85-.11-1.3-.4-3.34-1.98-6.46-2.49-9.35-2.49-7.53,0-12.24,4.7-12.24,12.86s3.97,13.2,11.67,13.2c3.57,0,6.57-.74,7.99-2.44v-6.12h-8.89c-1.25,0-1.98-.74-1.98-1.98v-3.34c0-1.25.74-1.98,1.98-1.98h15.18c1.25,0,1.98.74,1.98,1.98v15.58c0,1.02-.34,1.76-1.19,2.38Z"/>
  <path class="cls-1" d="M99.08,70.88c12.8,0,21.75,8.78,21.75,21.36s-8.89,21.3-21.81,21.3-21.81-8.78-21.81-21.3,8.95-21.36,21.87-21.36ZM99.02,105.04c7.76,0,12.58-4.93,12.58-12.8s-4.87-12.86-12.52-12.86-12.63,4.99-12.63,12.86,4.82,12.8,12.58,12.8Z"/>
  <path class="cls-1" d="M147.68,70.88c12.8,0,21.75,8.78,21.75,21.36s-8.89,21.3-21.81,21.3-21.81-8.78-21.81-21.3,8.95-21.36,21.87-21.36ZM147.63,105.04c7.76,0,12.58-4.93,12.58-12.8s-4.87-12.86-12.52-12.86-12.63,4.99-12.63,12.86,4.82,12.8,12.58,12.8Z"/>
  <path class="cls-1" d="M177.2,71.5c3.34-.28,7.93-.62,12.8-.62,13.43,0,22.66,7.25,22.66,21.07,0,12.69-8.44,21.58-21.58,21.58-3.8,0-9.06-.28-13.82-.62-1.3-.11-1.93-.85-1.93-2.1v-37.28c0-1.25.62-1.93,1.87-2.04ZM191.19,105.04c7.48,0,12.07-5.1,12.07-13.2,0-7.65-4.65-12.46-12.18-12.46-2.72,0-4.87.23-7.08.51v24.81c2.32.23,4.48.34,7.19.34Z"/>
  <path class="cls-1" d="M41.18,123.72c3.17-.28,7.65-.62,12.24-.62,12.12,0,20.11,6.23,20.11,17.22,0,14.16-10.59,25.44-25.89,25.44-3.91,0-9.29-.28-14.11-.62-1.19-.11-1.76-.68-1.76-1.7,0-.62,1.3-7.02,7.36-37.84.23-1.19.91-1.76,2.04-1.87ZM48.94,157.26c9.06,0,15.3-7.42,15.3-16.15,0-5.72-3.91-9.52-10.37-9.52-2.72,0-4.87.23-7.19.51l-4.82,24.81c2.27.23,4.36.34,7.08.34Z"/>
  <path class="cls-1" d="M121.85,141.9c0,13.82-11.22,23.85-25.04,23.85-11.9,0-19.6-8.33-19.6-19.21,0-13.6,11.33-23.45,25.21-23.45,11.84,0,19.43,7.87,19.43,18.81ZM97.55,157.26c8.89,0,15.07-6.74,15.07-15.18,0-6.12-4.08-10.48-10.93-10.48-8.95,0-15.24,6.69-15.24,14.96,0,6.06,4.14,10.71,11.1,10.71Z"/>
  <path class="cls-1" d="M160.26,134.82c-.45,0-.91-.23-1.42-.62-2.21-1.76-5.21-2.78-8.04-2.78-9.4,0-15.69,6.8-15.69,15.35,0,6.63,4.02,10.65,11.22,10.65,3.12,0,6.29-1.02,8.95-2.66.45-.28.85-.45,1.25-.45.57,0,1.08.4,1.47,1.13l1.7,3.4c.17.4.28.79.28,1.13,0,.62-.28,1.13-.85,1.59-3.34,2.49-7.53,4.19-13.48,4.19-11.39,0-19.94-6.8-19.94-18.92,0-12.8,10.03-23.74,23.17-23.74,7.25,0,11.78,1.64,14.84,4.14.51.4.74.91.74,1.42,0,.45-.11.85-.4,1.3l-2.44,3.91c-.4.62-.85.96-1.36.96Z"/>
  <path class="cls-1" d="M37.44,175.94c3.34-.28,7.93-.62,12.8-.62,13.43,0,22.66,7.25,22.66,21.07,0,12.69-8.44,21.58-21.58,21.58-3.8,0-9.06-.28-13.82-.62-1.3-.11-1.93-.85-1.93-2.1v-37.28c0-1.25.62-1.93,1.87-2.04ZM51.44,209.48c7.48,0,12.07-5.1,12.07-13.2,0-7.65-4.65-12.46-12.18-12.46-2.72,0-4.87.23-7.08.51v24.81c2.32.23,4.48.34,7.19.34Z"/>
  <path class="cls-1" d="M105.31,184.6h-17.9v7.53h13.03c1.25,0,1.98.74,1.98,1.98v4.19c0,1.25-.74,1.98-1.98,1.98h-13.03v8.5h18.98c1.25,0,1.98.74,1.98,1.98v4.59c0,1.25-.74,1.98-1.98,1.98h-25.66c-1.25,0-1.98-.74-1.98-1.98v-37.33c0-1.25.74-1.98,1.98-1.98h24.59c1.25,0,1.98.74,1.98,1.98v4.59c0,1.25-.74,1.98-1.98,1.98Z"/>
  <path class="cls-1" d="M140.32,178.09c0-1.25.74-1.98,1.98-1.98h4.87c1.25,0,1.98.74,1.98,1.98v36.99c0,1.25-.68,1.76-1.93,1.98-1.02.17-1.98.34-2.55.34-.79,0-1.36-.28-1.93-.96l-19.6-23.23v22.15c0,1.25-.74,1.98-1.98,1.98h-4.93c-1.25,0-1.98-.74-1.98-1.98v-37.05c0-1.25.62-1.98,1.87-2.1,1.13-.11,2.04-.34,2.78-.34.79,0,1.42.28,1.98,1.02l19.43,24.81v-23.62Z"/>
  <path class="cls-1" d="M173.57,217.35h-5.1c-1.25,0-1.98-.74-1.98-1.98v-30.76h-10.54c-1.25,0-1.98-.74-1.98-1.98v-4.59c0-1.25.74-1.98,1.98-1.98h30.2c1.25,0,1.98.74,1.98,1.98v4.59c0,1.25-.74,1.98-1.98,1.98h-10.59v30.76c0,1.25-.74,1.98-1.98,1.98Z"/>
  <path class="cls-1" d="M194.3,216.05c-.4,1.02-1.08,1.42-2.04,1.42-.23,0-.4,0-1.64-.11-1.81-.17-2.83-.23-3.8-.23-1.08,0-1.7-.62-1.7-1.42,0-.28.11-.62.45-1.47l15.92-36.65c.45-1.08,1.19-1.53,2.32-1.53h2.55c1.13,0,1.87.45,2.32,1.53l16.03,37.16c.17.34.23.68.23.96,0,.79-.62,1.3-1.76,1.36-.74.06-2.66.17-3.97.28-.68.06-1.08.11-1.59.11-.96,0-1.53-.62-1.87-1.47l-2.89-7.14h-15.69l-2.89,7.19ZM200.2,201.37h9.63l-4.82-11.73-4.82,11.73Z"/>
  <path class="cls-1" d="M256.22,210.78v4.59c0,1.25-.74,1.98-1.98,1.98h-23.17c-1.25,0-1.98-.74-1.98-1.98v-37.33c0-1.25.74-1.98,1.98-1.98h4.7c1.25,0,1.98.74,1.98,1.98v30.76h16.49c1.25,0,1.98.74,1.98,1.98Z"/>
</svg>